<svg width="52" height="42" viewBox="0 0 52 42" fill="none" xmlns="http://www.w3.org/2000/svg">
<path d="M40.2922 0C39.0668 0 37.9032 0.474576 37.0383 1.35151L0.339339 38.1209C0.0613171 38.3994 -0.0622483 38.8121 0.0304258 39.2041C0.1231 39.5962 0.411419 39.9057 0.792413 40.0398L4.95245 41.4326C5.70414 41.6802 6.46613 41.804 7.19722 41.804C8.79328 41.804 10.2864 41.2366 11.3573 40.143L15.8056 35.6861C17.0516 34.4377 17.6282 32.6839 17.4223 30.8062L19.5229 28.7015C19.9142 28.8047 20.3158 28.8666 20.707 28.8666C21.8912 28.8666 23.0754 28.4127 23.9712 27.5151L43.5564 7.89241C44.4316 7.01548 44.9053 5.85999 44.9053 4.62196C44.9053 3.38394 44.4316 2.22845 43.5564 1.35151C42.6811 0.474576 41.5278 0 40.2922 0ZM15.3937 29.5785C15.126 29.8467 15.0024 30.2388 15.0745 30.6205C15.3422 31.9617 15.0127 33.21 14.189 34.0457L9.73031 38.5129C8.77268 39.4724 7.21782 39.7509 5.67325 39.2351L3.28432 38.4304L15.8365 25.8644L17.4635 27.4945L15.3937 29.5785ZM41.9294 6.25203L22.3546 25.8644C21.4587 26.762 19.9862 26.762 19.0904 25.8644L17.4635 24.2343L38.6652 2.98158C39.5405 2.10464 41.0542 2.10464 41.9294 2.98158C42.3722 3.4252 42.609 4.00295 42.609 4.61164C42.5987 5.24097 42.3619 5.81872 41.9294 6.25203Z" fill="white"/>
<path d="M23.1681 39.689H19.7082C19.0698 39.689 18.5549 40.2049 18.5549 40.8445C18.5549 41.4842 19.0698 42 19.7082 42H23.1681C23.8065 42 24.3213 41.4842 24.3213 40.8445C24.3213 40.2049 23.8065 39.689 23.1681 39.689Z" fill="white"/>
<path d="M32.3943 39.689H28.9344C28.296 39.689 27.7812 40.2049 27.7812 40.8445C27.7812 41.4842 28.296 42 28.9344 42H32.3943C33.0327 42 33.5476 41.4842 33.5476 40.8445C33.5476 40.2049 33.0327 39.689 32.3943 39.689Z" fill="white"/>
<path d="M41.6205 39.689H38.1607C37.5222 39.689 37.0074 40.2049 37.0074 40.8445C37.0074 41.4842 37.5222 42 38.1607 42H41.6205C42.2589 42 42.7738 41.4842 42.7738 40.8445C42.7738 40.2049 42.2589 39.689 41.6205 39.689Z" fill="white"/>
<path d="M50.8467 39.689H47.3869C46.7485 39.689 46.2336 40.2049 46.2336 40.8445C46.2336 41.4842 46.7485 42 47.3869 42H50.8467C51.4851 42 52 41.4842 52 40.8445C52 40.2049 51.4851 39.689 50.8467 39.689Z" fill="white"/>
</svg>
