<svg width="54" height="54" viewBox="0 0 54 54" fill="none" xmlns="http://www.w3.org/2000/svg">
<path d="M51.7221 32.8353C51.4955 32.349 51.4646 31.5523 51.4337 30.6315C51.3925 29.5245 51.3513 28.1484 50.9495 26.6275C50.7847 26.0068 50.7023 25.3756 50.6199 24.7756C50.3314 22.6546 50.0327 20.4612 46.5096 17.9781C44.4287 16.509 43.1101 15.0605 42.3169 13.9638C42.9659 11.729 45.9636 5.0971 47.5706 1.66216L47.8694 1H32.036L31.9433 1.32073C31.9227 1.4035 29.3782 9.77358 28.0493 11.9877C27.5446 12.8257 27.2149 13.5292 26.9986 14.0983C26.7822 13.5292 26.4526 12.8257 25.9478 11.9877C24.6086 9.77358 22.0745 1.4035 22.0539 1.32073L21.9508 1H6.10715L6.40589 1.64146C8.01292 5.08675 11.0107 11.7187 11.6597 13.9534C10.8664 15.0501 9.54785 16.4986 7.46695 17.9678C3.94384 20.4509 3.64509 22.6442 3.35665 24.7652C3.27424 25.3756 3.19183 25.9964 3.027 26.6172C2.62524 28.1381 2.58404 29.5141 2.54283 30.6212C2.51193 31.542 2.49133 32.3386 2.25439 32.8249C2.12047 33.1146 1.93504 33.4146 1.74962 33.7043C1.20364 34.5838 0.441328 35.7943 1.626 36.5495C1.80113 36.6634 1.99685 36.7151 2.22349 36.7151C2.47072 36.7151 2.74886 36.653 3.04761 36.5185C4.63404 35.8253 6.86946 33.394 7.26092 31.3971C7.34333 30.9522 7.52875 30.497 7.75539 30.0418C7.8481 32.5559 8.15715 37.6152 9.10488 41.4743C10.8458 48.5615 12.1438 52.462 13.8951 52.462C13.9466 52.462 14.0084 52.462 14.0599 52.4517C14.5338 52.3896 14.9458 52.1206 15.2343 51.6757C15.4712 51.3136 15.636 50.8273 15.7287 50.2376C16.5117 51.4067 17.8199 52.9483 19.3137 52.9483C19.6021 52.9483 19.9008 52.8862 20.1996 52.762C20.6013 52.5862 20.9001 52.3482 21.1267 52.0481C21.5491 52.4827 22.2187 53 22.981 53C23.1149 53 23.2488 52.9897 23.3827 52.9483C23.9081 52.8138 24.3099 52.5241 24.5777 52.0792C25.0619 51.2722 25.0825 49.9996 24.6292 48.1787C24.5365 47.8166 24.4541 47.4441 24.3614 47.0613C24.6395 47.1751 24.9589 47.2682 25.3297 47.2682C25.4121 47.2682 25.5049 47.2682 25.5976 47.2579C26.3496 47.1854 26.7719 46.8544 26.9986 46.3577C27.2252 46.844 27.6579 47.1751 28.3996 47.2579C28.4923 47.2682 28.5747 47.2682 28.6674 47.2682C29.0383 47.2682 29.3679 47.1854 29.6358 47.0613C29.5533 47.4441 29.4606 47.8269 29.3679 48.1787C28.9146 49.9893 28.9353 51.2722 29.4194 52.0792C29.6873 52.5241 30.089 52.8138 30.6144 52.9483C30.7483 52.9793 30.8822 53 31.0162 53C31.7785 53 32.4481 52.4827 32.8704 52.0481C33.0868 52.3482 33.3958 52.5965 33.7976 52.762C34.0963 52.8965 34.395 52.9483 34.6835 52.9483C36.1772 52.9483 37.4855 51.417 38.2684 50.2376C38.3611 50.8273 38.5259 51.3136 38.7629 51.6757C39.0513 52.1102 39.4634 52.3792 39.9372 52.4517C39.9888 52.462 40.0506 52.462 40.1021 52.462C41.843 52.462 43.141 48.5718 44.8923 41.4847C45.84 37.6255 46.149 32.5663 46.2418 30.0521C46.4684 30.5074 46.6435 30.9522 46.7362 31.4075C47.1277 33.4043 49.3528 35.8357 50.9495 36.5289C51.2586 36.6633 51.5264 36.7254 51.7737 36.7254C52.0003 36.7254 52.196 36.6737 52.3711 36.5599C53.5558 35.8046 52.8038 34.6045 52.2475 33.7147C52.0518 33.425 51.8561 33.1146 51.7221 32.8353ZM26.5144 28.3967C26.4732 30.7246 26.1435 33.394 25.9375 34.9873C25.8242 35.877 25.7727 36.3116 25.7727 36.5185C25.7727 36.7254 25.783 36.9737 25.7933 37.2427C25.8139 37.7394 25.8448 38.3601 25.783 38.6498C25.7006 39.0223 25.7727 39.6534 25.9478 40.926C26.0405 41.5985 26.1435 42.4469 26.2363 43.3573C26.4835 45.8818 26.2981 46.2646 25.5049 46.3474C24.7425 46.4198 24.2481 45.9646 24.0936 45.799C23.7021 43.8643 23.393 42.002 23.3724 41.5157C23.3518 41.1846 23.1973 40.6259 22.9707 39.8707C22.6616 38.7947 22.229 37.3152 22.1981 36.2495L21.3018 36.2805C21.3431 37.46 21.7654 38.9395 22.1157 40.1293C22.3011 40.7501 22.4659 41.3398 22.4762 41.5778C22.5174 42.3848 23.1355 45.9129 23.7536 48.4063C24.2378 50.3307 24.042 51.2205 23.8051 51.624C23.6609 51.8619 23.4652 52.0068 23.1664 52.0792C22.538 52.2344 21.8272 51.5412 21.4976 51.117C21.6521 49.9686 21.0134 48.5511 20.4777 47.3924C20.2614 46.9061 20.0451 46.4509 19.9421 46.1094C19.7463 45.4783 19.4991 44.7955 19.2622 44.1437C18.9737 43.347 18.5823 42.2606 18.5926 42.0123C18.6235 41.7744 18.5307 41.3295 18.335 40.3673C18.0775 39.0947 17.6757 37.16 17.8405 36.3737L16.9649 36.1771C16.7795 37.0772 17.0782 38.6809 17.4491 40.5432C17.5624 41.1122 17.6963 41.764 17.6963 41.9089C17.6551 42.3124 17.9127 43.0573 18.4174 44.454C18.6544 45.1059 18.8913 45.768 19.087 46.3784C19.2106 46.7819 19.427 47.2579 19.6639 47.7752C20.1996 48.9546 20.8692 50.4238 20.5395 51.2929C20.4262 51.5826 20.2099 51.7895 19.8596 51.9447C18.0569 52.7207 16.1202 49.1823 15.8215 48.6339C15.7802 47.3303 15.533 45.7473 15.0591 43.9574C14.3689 41.3295 14.1732 39.5189 14.0084 38.0601C13.9054 37.1186 13.823 36.3633 13.6375 35.6701L12.7619 35.9081C12.9267 36.5392 13.0091 37.2634 13.1122 38.1636C13.2667 39.5706 13.483 41.5054 14.1835 44.1954C15.0488 47.4958 15.1622 50.1755 14.4823 51.1998C14.3277 51.4274 14.1526 51.5515 13.9363 51.5826C12.5868 51.7792 10.6913 44.154 9.98051 41.2881C8.79584 36.4771 8.64132 29.7004 8.62071 28.6554C8.84735 28.314 9.09458 27.9829 9.33152 27.6518C10.0011 26.731 10.6295 25.8619 10.9385 25.0342L10.0938 24.7135C9.82599 25.417 9.2285 26.2447 8.60011 27.1138C7.69358 28.3554 6.66343 29.7728 6.37499 31.2316C6.05564 32.887 4.04685 35.1114 2.69735 35.6908C2.37801 35.8357 2.18228 35.8357 2.11017 35.7839C1.77022 35.5667 1.84233 35.2666 2.51193 34.1906C2.70766 33.8802 2.91369 33.5491 3.06821 33.2181C3.37725 32.5663 3.40816 31.7179 3.43906 30.6522C3.48027 29.5348 3.51117 28.2726 3.89233 26.8448C4.06745 26.1723 4.16017 25.5101 4.24258 24.879C4.52072 22.8615 4.77826 20.9578 7.98202 18.692C10.2896 17.0676 11.7009 15.4536 12.5353 14.2638L12.6589 14.2431C12.6486 14.2018 12.6383 14.1604 12.6383 14.119C13.3388 13.0947 13.586 12.4119 13.6066 12.3601L12.7619 12.0497C12.7619 12.0601 12.628 12.4119 12.2983 12.9706C11.2682 10.0426 8.45589 3.91763 7.52875 1.91047H21.2812C21.7654 3.50378 23.9184 10.384 25.1649 12.4636C26.4423 14.5846 26.5144 15.7744 26.5144 15.7744C26.5144 15.8571 26.5659 25.0032 26.5144 28.3967ZM27.1428 40.8122C27.0913 41.1743 27.0398 41.5881 26.9883 42.0227C26.9368 41.5778 26.8853 41.164 26.8337 40.8018C26.7204 39.9121 26.6071 39.074 26.6586 38.8361C26.7513 38.4222 26.7204 37.7911 26.6895 37.191C26.6792 36.9427 26.6689 36.7047 26.6689 36.5082C26.6689 36.3426 26.741 35.7632 26.8234 35.0907C26.875 34.7183 26.9265 34.2941 26.978 33.8285C27.0295 34.2941 27.0913 34.7286 27.1325 35.1011C27.2149 35.7736 27.287 36.353 27.287 36.5185C27.287 36.7151 27.2767 36.9427 27.2664 37.2014C27.2355 37.8118 27.2046 38.4429 27.2973 38.8464C27.3694 39.074 27.2561 39.9224 27.1428 40.8122ZM51.8767 35.7943C51.8046 35.8357 51.6191 35.8357 51.2895 35.7012C49.9297 35.1114 47.9312 32.8973 47.6119 31.2419C47.3234 29.7831 46.2933 28.3657 45.3867 27.1138C44.7583 26.2447 44.1609 25.417 43.893 24.7135L43.0483 25.0342C43.3573 25.8619 43.9857 26.731 44.6553 27.6518C44.8923 27.9829 45.1395 28.314 45.3661 28.6554C45.3455 29.7004 45.191 36.4668 44.0063 41.2881C43.3058 44.154 41.4413 51.7688 40.0506 51.5826C39.8239 51.5515 39.6488 51.4274 39.5046 51.1998C38.8247 50.1755 38.938 47.4958 39.8033 44.1954C40.5038 41.5054 40.7202 39.581 40.8747 38.1636C40.9777 37.2531 41.0498 36.5392 41.2249 35.9081L40.3493 35.6701C40.1639 36.3737 40.0815 37.1186 39.9785 38.0601C39.8136 39.5189 39.6179 41.3295 38.9277 43.9574C38.4641 45.7473 38.2066 47.3303 38.1654 48.6339C37.8769 49.1823 35.93 52.7207 34.1272 51.9447C33.777 51.7895 33.5503 51.5826 33.4473 51.2929C33.1177 50.4238 33.777 48.9546 34.3229 47.7752C34.5599 47.2682 34.7762 46.7819 34.8998 46.3784C35.0852 45.768 35.3325 45.0955 35.5694 44.454C36.0742 43.0676 36.3317 42.3227 36.2905 41.9192C36.2802 41.7744 36.4141 41.1226 36.5378 40.5535C36.9189 38.7015 37.2176 37.0875 37.0322 36.1874L36.1463 36.3737C36.3111 37.16 35.9197 39.0844 35.6518 40.3673C35.4561 41.3295 35.3634 41.7744 35.3943 42.0123C35.4046 42.2606 35.0131 43.3573 34.7247 44.154C34.4878 44.8162 34.2405 45.4887 34.0448 46.1198C33.9418 46.4612 33.7254 46.9268 33.5091 47.4131C32.9837 48.5718 32.345 49.9789 32.4893 51.1377C32.1699 51.5412 31.4488 52.2551 30.8204 52.0999C30.532 52.0275 30.326 51.8826 30.1817 51.6446C29.9448 51.2411 29.7594 50.3617 30.2332 48.427C30.8513 45.9335 31.4694 42.4055 31.5106 41.5985C31.5209 41.3709 31.6961 40.7811 31.8712 40.1604C32.2214 38.9706 32.6438 37.491 32.685 36.3116L31.7888 36.2805C31.7579 37.3462 31.3252 38.8257 31.0162 39.9017C30.7895 40.6673 30.635 41.2157 30.6144 41.5468C30.5835 42.033 30.2847 43.8953 29.8933 45.8301C29.7285 46.006 29.234 46.4509 28.482 46.3784C27.6785 46.2957 27.5033 45.9129 27.7506 43.3884C27.8433 42.4676 27.9463 41.6502 28.039 40.957C28.2038 39.6741 28.2863 39.043 28.2038 38.6705C28.142 38.3808 28.1626 37.76 28.1935 37.2634C28.2038 36.9944 28.2141 36.7461 28.2141 36.5392C28.2141 36.3219 28.1626 35.8874 28.0493 35.008C27.8433 33.4146 27.5136 30.7453 27.4724 28.4174C27.4209 25.0342 27.4724 15.8882 27.4724 15.8054C27.4724 15.7951 27.5343 14.6053 28.8219 12.4843C30.0787 10.4047 32.2214 3.52447 32.7056 1.93116H46.4581C45.5207 3.91763 42.7186 10.0322 41.6885 12.9912C41.3588 12.4326 41.2249 12.0808 41.2146 12.0704L40.3699 12.3808C40.3905 12.4429 40.648 13.1257 41.3382 14.1397C41.3279 14.1811 41.3176 14.2224 41.3176 14.2638L41.4413 14.2845C42.2757 15.4743 43.687 17.078 45.9945 18.7127C49.1983 20.9682 49.4558 22.8719 49.734 24.8997C49.8164 25.5308 49.9091 26.193 50.0842 26.8655C50.4551 28.2829 50.4963 29.5555 50.5375 30.6729C50.5684 31.7386 50.5993 32.5766 50.9083 33.2388C51.0629 33.5698 51.2689 33.9009 51.4646 34.2113C52.1445 35.277 52.2166 35.577 51.8767 35.7943Z" fill="white"/>
<path d="M29.4089 29.5141V30.4246H29.4501C34.6318 30.4246 37.7119 33.2077 37.7428 33.2388L38.3506 32.5766C38.2167 32.4524 35.0026 29.5245 29.4501 29.5245L29.4089 29.5141Z" fill="white"/>
<path d="M34.4566 24.9204L33.7665 25.4998C35.8164 27.9829 41.575 30.2901 41.8222 30.3832L42.1519 29.5452C42.0901 29.5245 36.3624 27.2276 34.4566 24.9204Z" fill="white"/>
<path d="M36.4139 23.4099L36.8672 22.6339C36.8363 22.6132 34.0652 20.9475 32.3448 17.4194L31.531 17.8126C33.375 21.5786 36.2903 23.3374 36.4139 23.4099Z" fill="white"/>
<path d="M15.6255 32.5663L16.2333 33.2284C16.2642 33.1974 19.3238 30.4142 24.526 30.4142H24.5672V29.5038H24.526C18.9838 29.5141 15.7594 32.4421 15.6255 32.5663Z" fill="white"/>
<path d="M20.22 25.4998L19.5298 24.9204C17.624 27.2173 11.8964 29.5141 11.8346 29.5452L12.1642 30.3832C12.4115 30.2901 18.17 27.9829 20.22 25.4998Z" fill="white"/>
<path d="M22.4348 17.8126L21.621 17.4194C19.9109 20.9268 17.1295 22.6132 17.0986 22.6339L17.5519 23.4099C17.6858 23.3374 20.6011 21.5786 22.4348 17.8126Z" fill="white"/>
<path d="M51.7221 32.8353C51.4955 32.349 51.4646 31.5523 51.4337 30.6315C51.3925 29.5245 51.3513 28.1484 50.9495 26.6275C50.7847 26.0068 50.7023 25.3756 50.6199 24.7756C50.3314 22.6546 50.0327 20.4612 46.5096 17.9781C44.4287 16.509 43.1101 15.0605 42.3169 13.9638C42.9659 11.729 45.9636 5.0971 47.5706 1.66216L47.8694 1H32.036L31.9433 1.32073C31.9227 1.4035 29.3782 9.77358 28.0493 11.9877C27.5446 12.8257 27.2149 13.5292 26.9986 14.0983C26.7822 13.5292 26.4526 12.8257 25.9478 11.9877C24.6086 9.77358 22.0745 1.4035 22.0539 1.32073L21.9508 1H6.10715L6.40589 1.64146C8.01292 5.08675 11.0107 11.7187 11.6597 13.9534C10.8664 15.0501 9.54785 16.4986 7.46695 17.9678C3.94384 20.4509 3.64509 22.6442 3.35665 24.7652C3.27424 25.3756 3.19183 25.9964 3.027 26.6172C2.62524 28.1381 2.58404 29.5141 2.54283 30.6212C2.51193 31.542 2.49133 32.3386 2.25439 32.8249C2.12047 33.1146 1.93504 33.4146 1.74962 33.7043C1.20364 34.5838 0.441328 35.7943 1.626 36.5495C1.80113 36.6634 1.99685 36.7151 2.22349 36.7151C2.47072 36.7151 2.74886 36.653 3.04761 36.5185C4.63404 35.8253 6.86946 33.394 7.26092 31.3971C7.34333 30.9522 7.52875 30.497 7.75539 30.0418C7.8481 32.5559 8.15715 37.6152 9.10488 41.4743C10.8458 48.5615 12.1438 52.462 13.8951 52.462C13.9466 52.462 14.0084 52.462 14.0599 52.4517C14.5338 52.3896 14.9458 52.1206 15.2343 51.6757C15.4712 51.3136 15.636 50.8273 15.7287 50.2376C16.5117 51.4067 17.8199 52.9483 19.3137 52.9483C19.6021 52.9483 19.9008 52.8862 20.1996 52.762C20.6013 52.5862 20.9001 52.3482 21.1267 52.0481C21.5491 52.4827 22.2187 53 22.981 53C23.1149 53 23.2488 52.9897 23.3827 52.9483C23.9081 52.8138 24.3099 52.5241 24.5777 52.0792C25.0619 51.2722 25.0825 49.9996 24.6292 48.1787C24.5365 47.8166 24.4541 47.4441 24.3614 47.0613C24.6395 47.1751 24.9589 47.2682 25.3297 47.2682C25.4121 47.2682 25.5049 47.2682 25.5976 47.2579C26.3496 47.1854 26.7719 46.8544 26.9986 46.3577C27.2252 46.844 27.6579 47.1751 28.3996 47.2579C28.4923 47.2682 28.5747 47.2682 28.6674 47.2682C29.0383 47.2682 29.3679 47.1854 29.6358 47.0613C29.5533 47.4441 29.4606 47.8269 29.3679 48.1787C28.9146 49.9893 28.9353 51.2722 29.4194 52.0792C29.6873 52.5241 30.089 52.8138 30.6144 52.9483C30.7483 52.9793 30.8822 53 31.0162 53C31.7785 53 32.4481 52.4827 32.8704 52.0481C33.0868 52.3482 33.3958 52.5965 33.7976 52.762C34.0963 52.8965 34.395 52.9483 34.6835 52.9483C36.1772 52.9483 37.4855 51.417 38.2684 50.2376C38.3611 50.8273 38.5259 51.3136 38.7629 51.6757C39.0513 52.1102 39.4634 52.3792 39.9372 52.4517C39.9888 52.462 40.0506 52.462 40.1021 52.462C41.843 52.462 43.141 48.5718 44.8923 41.4847C45.84 37.6255 46.149 32.5663 46.2418 30.0521C46.4684 30.5074 46.6435 30.9522 46.7362 31.4075C47.1277 33.4043 49.3528 35.8357 50.9495 36.5289C51.2586 36.6633 51.5264 36.7254 51.7737 36.7254C52.0003 36.7254 52.196 36.6737 52.3711 36.5599C53.5558 35.8046 52.8038 34.6045 52.2475 33.7147C52.0518 33.425 51.8561 33.1146 51.7221 32.8353ZM26.5144 28.3967C26.4732 30.7246 26.1435 33.394 25.9375 34.9873C25.8242 35.877 25.7727 36.3116 25.7727 36.5185C25.7727 36.7254 25.783 36.9737 25.7933 37.2427C25.8139 37.7394 25.8448 38.3601 25.783 38.6498C25.7006 39.0223 25.7727 39.6534 25.9478 40.926C26.0405 41.5985 26.1435 42.4469 26.2363 43.3573C26.4835 45.8818 26.2981 46.2646 25.5049 46.3474C24.7425 46.4198 24.2481 45.9646 24.0936 45.799C23.7021 43.8643 23.393 42.002 23.3724 41.5157C23.3518 41.1846 23.1973 40.6259 22.9707 39.8707C22.6616 38.7947 22.229 37.3152 22.1981 36.2495L21.3018 36.2805C21.3431 37.46 21.7654 38.9395 22.1157 40.1293C22.3011 40.7501 22.4659 41.3398 22.4762 41.5778C22.5174 42.3848 23.1355 45.9129 23.7536 48.4063C24.2378 50.3307 24.042 51.2205 23.8051 51.624C23.6609 51.8619 23.4652 52.0068 23.1664 52.0792C22.538 52.2344 21.8272 51.5412 21.4976 51.117C21.6521 49.9686 21.0134 48.5511 20.4777 47.3924C20.2614 46.9061 20.0451 46.4509 19.9421 46.1094C19.7463 45.4783 19.4991 44.7955 19.2622 44.1437C18.9737 43.347 18.5823 42.2606 18.5926 42.0123C18.6235 41.7744 18.5307 41.3295 18.335 40.3673C18.0775 39.0947 17.6757 37.16 17.8405 36.3737L16.9649 36.1771C16.7795 37.0772 17.0782 38.6809 17.4491 40.5432C17.5624 41.1122 17.6963 41.764 17.6963 41.9089C17.6551 42.3124 17.9127 43.0573 18.4174 44.454C18.6544 45.1059 18.8913 45.768 19.087 46.3784C19.2106 46.7819 19.427 47.2579 19.6639 47.7752C20.1996 48.9546 20.8692 50.4238 20.5395 51.2929C20.4262 51.5826 20.2099 51.7895 19.8596 51.9447C18.0569 52.7207 16.1202 49.1823 15.8215 48.6339C15.7802 47.3303 15.533 45.7473 15.0591 43.9574C14.3689 41.3295 14.1732 39.5189 14.0084 38.0601C13.9054 37.1186 13.823 36.3633 13.6375 35.6701L12.7619 35.9081C12.9267 36.5392 13.0091 37.2634 13.1122 38.1636C13.2667 39.5706 13.483 41.5054 14.1835 44.1954C15.0488 47.4958 15.1622 50.1755 14.4823 51.1998C14.3277 51.4274 14.1526 51.5515 13.9363 51.5826C12.5868 51.7792 10.6913 44.154 9.98051 41.2881C8.79584 36.4771 8.64132 29.7004 8.62071 28.6554C8.84735 28.314 9.09458 27.9829 9.33152 27.6518C10.0011 26.731 10.6295 25.8619 10.9385 25.0342L10.0938 24.7135C9.82599 25.417 9.2285 26.2447 8.60011 27.1138C7.69358 28.3554 6.66343 29.7728 6.37499 31.2316C6.05564 32.887 4.04685 35.1114 2.69735 35.6908C2.37801 35.8357 2.18228 35.8357 2.11017 35.7839C1.77022 35.5667 1.84233 35.2666 2.51193 34.1906C2.70766 33.8802 2.91369 33.5491 3.06821 33.2181C3.37725 32.5663 3.40816 31.7179 3.43906 30.6522C3.48027 29.5348 3.51117 28.2726 3.89233 26.8448C4.06745 26.1723 4.16017 25.5101 4.24258 24.879C4.52072 22.8615 4.77826 20.9578 7.98202 18.692C10.2896 17.0676 11.7009 15.4536 12.5353 14.2638L12.6589 14.2431C12.6486 14.2018 12.6383 14.1604 12.6383 14.119C13.3388 13.0947 13.586 12.4119 13.6066 12.3601L12.7619 12.0497C12.7619 12.0601 12.628 12.4119 12.2983 12.9706C11.2682 10.0426 8.45589 3.91763 7.52875 1.91047H21.2812C21.7654 3.50378 23.9184 10.384 25.1649 12.4636C26.4423 14.5846 26.5144 15.7744 26.5144 15.7744C26.5144 15.8571 26.5659 25.0032 26.5144 28.3967ZM27.1428 40.8122C27.0913 41.1743 27.0398 41.5881 26.9883 42.0227C26.9368 41.5778 26.8853 41.164 26.8337 40.8018C26.7204 39.9121 26.6071 39.074 26.6586 38.8361C26.7513 38.4222 26.7204 37.7911 26.6895 37.191C26.6792 36.9427 26.6689 36.7047 26.6689 36.5082C26.6689 36.3426 26.741 35.7632 26.8234 35.0907C26.875 34.7183 26.9265 34.2941 26.978 33.8285C27.0295 34.2941 27.0913 34.7286 27.1325 35.1011C27.2149 35.7736 27.287 36.353 27.287 36.5185C27.287 36.7151 27.2767 36.9427 27.2664 37.2014C27.2355 37.8118 27.2046 38.4429 27.2973 38.8464C27.3694 39.074 27.2561 39.9224 27.1428 40.8122ZM51.8767 35.7943C51.8046 35.8357 51.6191 35.8357 51.2895 35.7012C49.9297 35.1114 47.9312 32.8973 47.6119 31.2419C47.3234 29.7831 46.2933 28.3657 45.3867 27.1138C44.7583 26.2447 44.1609 25.417 43.893 24.7135L43.0483 25.0342C43.3573 25.8619 43.9857 26.731 44.6553 27.6518C44.8923 27.9829 45.1395 28.314 45.3661 28.6554C45.3455 29.7004 45.191 36.4668 44.0063 41.2881C43.3058 44.154 41.4413 51.7688 40.0506 51.5826C39.8239 51.5515 39.6488 51.4274 39.5046 51.1998C38.8247 50.1755 38.938 47.4958 39.8033 44.1954C40.5038 41.5054 40.7202 39.581 40.8747 38.1636C40.9777 37.2531 41.0498 36.5392 41.2249 35.9081L40.3493 35.6701C40.1639 36.3737 40.0815 37.1186 39.9785 38.0601C39.8136 39.5189 39.6179 41.3295 38.9277 43.9574C38.4641 45.7473 38.2066 47.3303 38.1654 48.6339C37.8769 49.1823 35.93 52.7207 34.1272 51.9447C33.777 51.7895 33.5503 51.5826 33.4473 51.2929C33.1177 50.4238 33.777 48.9546 34.3229 47.7752C34.5599 47.2682 34.7762 46.7819 34.8998 46.3784C35.0852 45.768 35.3325 45.0955 35.5694 44.454C36.0742 43.0676 36.3317 42.3227 36.2905 41.9192C36.2802 41.7744 36.4141 41.1226 36.5378 40.5535C36.9189 38.7015 37.2176 37.0875 37.0322 36.1874L36.1463 36.3737C36.3111 37.16 35.9197 39.0844 35.6518 40.3673C35.4561 41.3295 35.3634 41.7744 35.3943 42.0123C35.4046 42.2606 35.0131 43.3573 34.7247 44.154C34.4878 44.8162 34.2405 45.4887 34.0448 46.1198C33.9418 46.4612 33.7254 46.9268 33.5091 47.4131C32.9837 48.5718 32.345 49.9789 32.4893 51.1377C32.1699 51.5412 31.4488 52.2551 30.8204 52.0999C30.532 52.0275 30.326 51.8826 30.1817 51.6446C29.9448 51.2411 29.7594 50.3617 30.2332 48.427C30.8513 45.9335 31.4694 42.4055 31.5106 41.5985C31.5209 41.3709 31.6961 40.7811 31.8712 40.1604C32.2214 38.9706 32.6438 37.491 32.685 36.3116L31.7888 36.2805C31.7579 37.3462 31.3252 38.8257 31.0162 39.9017C30.7895 40.6673 30.635 41.2157 30.6144 41.5468C30.5835 42.033 30.2847 43.8953 29.8933 45.8301C29.7285 46.006 29.234 46.4509 28.482 46.3784C27.6785 46.2957 27.5033 45.9129 27.7506 43.3884C27.8433 42.4676 27.9463 41.6502 28.039 40.957C28.2038 39.6741 28.2863 39.043 28.2038 38.6705C28.142 38.3808 28.1626 37.76 28.1935 37.2634C28.2038 36.9944 28.2141 36.7461 28.2141 36.5392C28.2141 36.3219 28.1626 35.8874 28.0493 35.008C27.8433 33.4146 27.5136 30.7453 27.4724 28.4174C27.4209 25.0342 27.4724 15.8882 27.4724 15.8054C27.4724 15.7951 27.5343 14.6053 28.8219 12.4843C30.0787 10.4047 32.2214 3.52447 32.7056 1.93116H46.4581C45.5207 3.91763 42.7186 10.0322 41.6885 12.9912C41.3588 12.4326 41.2249 12.0808 41.2146 12.0704L40.3699 12.3808C40.3905 12.4429 40.648 13.1257 41.3382 14.1397C41.3279 14.1811 41.3176 14.2224 41.3176 14.2638L41.4413 14.2845C42.2757 15.4743 43.687 17.078 45.9945 18.7127C49.1983 20.9682 49.4558 22.8719 49.734 24.8997C49.8164 25.5308 49.9091 26.193 50.0842 26.8655C50.4551 28.2829 50.4963 29.5555 50.5375 30.6729C50.5684 31.7386 50.5993 32.5766 50.9083 33.2388C51.0629 33.5698 51.2689 33.9009 51.4646 34.2113C52.1445 35.277 52.2166 35.577 51.8767 35.7943Z" stroke="white"/>
<path d="M29.4089 29.5141V30.4246H29.4501C34.6318 30.4246 37.7119 33.2077 37.7428 33.2388L38.3506 32.5766C38.2167 32.4524 35.0026 29.5245 29.4501 29.5245L29.4089 29.5141Z" stroke="white"/>
<path d="M34.4566 24.9204L33.7665 25.4998C35.8164 27.9829 41.575 30.2901 41.8222 30.3832L42.1519 29.5452C42.0901 29.5245 36.3624 27.2276 34.4566 24.9204Z" stroke="white"/>
<path d="M36.4139 23.4099L36.8672 22.6339C36.8363 22.6132 34.0652 20.9475 32.3448 17.4194L31.531 17.8126C33.375 21.5786 36.2903 23.3374 36.4139 23.4099Z" stroke="white"/>
<path d="M15.6255 32.5663L16.2333 33.2284C16.2642 33.1974 19.3238 30.4142 24.526 30.4142H24.5672V29.5038H24.526C18.9838 29.5141 15.7594 32.4421 15.6255 32.5663Z" stroke="white"/>
<path d="M20.22 25.4998L19.5298 24.9204C17.624 27.2173 11.8964 29.5141 11.8346 29.5452L12.1642 30.3832C12.4115 30.2901 18.17 27.9829 20.22 25.4998Z" stroke="white"/>
<path d="M22.4348 17.8126L21.621 17.4194C19.9109 20.9268 17.1295 22.6132 17.0986 22.6339L17.5519 23.4099C17.6858 23.3374 20.6011 21.5786 22.4348 17.8126Z" stroke="white"/>
</svg>
