<svg width="43" height="44" viewBox="0 0 43 44" fill="none" xmlns="http://www.w3.org/2000/svg">
<path d="M38.2222 31.6251V17.2815C38.2222 16.0315 37.7188 14.8327 36.8228 13.9488C35.9268 13.0649 34.7116 12.5684 33.4444 12.5684H31.8518V10.9973C31.8518 9.74731 31.3485 8.5485 30.4525 7.66462C29.5565 6.78074 28.3412 6.28418 27.0741 6.28418H9.55555V4.71313C9.55555 3.46313 9.05218 2.26433 8.15617 1.38044C7.26017 0.496561 6.04492 0 4.77778 0H1.59259C1.17021 0 0.765128 0.16552 0.466459 0.460148C0.16779 0.754776 0 1.15438 0 1.57104C0 1.98771 0.16779 2.38731 0.466459 2.68194C0.765128 2.97657 1.17021 3.14209 1.59259 3.14209H4.77778C5.20016 3.14209 5.60524 3.30761 5.90391 3.60224C6.20258 3.89686 6.37037 4.29646 6.37037 4.71313V25.6866C4.71828 26.2628 3.25862 27.276 2.15101 28.6155C1.04339 29.955 0.330484 31.5691 0.09024 33.2814C-0.150004 34.9936 0.0916682 36.7381 0.788828 38.324C1.48599 39.9099 2.61179 41.2762 4.04312 42.2734C5.47444 43.2705 7.15618 43.8603 8.90441 43.9781C10.6526 44.0959 12.4 43.7372 13.9555 42.9412C15.511 42.1453 16.8147 40.9427 17.7239 39.4651C18.6332 37.9874 19.1131 36.2916 19.1111 34.563C19.1164 32.2399 18.2417 29.9986 16.6585 28.2788H35.037V31.6251C33.5358 32.0075 32.2274 32.9169 31.3572 34.1828C30.487 35.4487 30.1147 36.9842 30.31 38.5016C30.5054 40.0189 31.255 41.4139 32.4184 42.425C33.5818 43.4361 35.0791 43.9939 36.6296 43.9939C38.1801 43.9939 39.6774 43.4361 40.8408 42.425C42.0042 41.4139 42.7538 40.0189 42.9492 38.5016C43.1446 36.9842 42.7723 35.4487 41.9021 34.1828C41.0318 32.9169 39.7235 32.0075 38.2222 31.6251ZM36.6296 40.8471C35.9996 40.8471 35.3838 40.6629 34.86 40.3176C34.3362 39.9723 33.928 39.4816 33.6869 38.9075C33.4458 38.3333 33.3827 37.7016 33.5056 37.0921C33.6285 36.4826 33.9319 35.9227 34.3773 35.4833C34.8228 35.0438 35.3904 34.7446 36.0082 34.6233C36.6261 34.5021 37.2665 34.5643 37.8485 34.8021C38.4305 35.04 38.928 35.4427 39.278 35.9594C39.628 36.4761 39.8148 37.0836 39.8148 37.7051C39.8148 38.5384 39.4792 39.3376 38.8819 39.9268C38.2845 40.5161 37.4744 40.8471 36.6296 40.8471ZM27.0741 9.42626C27.4964 9.42626 27.9015 9.59178 28.2002 9.88641C28.4989 10.181 28.6667 10.5806 28.6667 10.9973V12.5684H9.55555V9.42626H27.0741ZM15.9259 34.563C15.9259 35.8059 15.5523 37.0208 14.8523 38.0543C14.1523 39.0877 13.1574 39.8932 11.9934 40.3688C10.8294 40.8444 9.54849 40.9689 8.31275 40.7264C7.07702 40.4839 5.94193 39.8854 5.05102 39.0065C4.16011 38.1277 3.55339 37.008 3.30759 35.7889C3.06179 34.5699 3.18794 33.3064 3.6701 32.1581C4.15226 31.0098 4.96876 30.0284 6.01637 29.3379C7.06397 28.6474 8.29561 28.2788 9.55555 28.2788C11.2451 28.2788 12.8654 28.9409 14.0601 30.1194C15.2548 31.2979 15.9259 32.8963 15.9259 34.563ZM9.55555 25.1367V15.7104H33.4444C33.8668 15.7104 34.2719 15.876 34.5706 16.1706C34.8692 16.4652 35.037 16.8648 35.037 17.2815V25.1367H9.55555Z" fill="white"/>
</svg>
