<svg width="17" height="19" viewBox="0 0 17 19" fill="none" xmlns="http://www.w3.org/2000/svg">
<path d="M9.01128 12.2328C7.08331 12.2325 5.21811 12.8975 3.74926 14.1088C2.28042 15.32 1.30373 16.9986 0.993881 18.8442H2.15414C2.45614 17.2992 3.30468 15.9048 4.55336 14.9018C5.80204 13.8987 7.37254 13.3498 8.99388 13.3498C10.6152 13.3498 12.1857 13.8987 13.4344 14.9018C14.6831 15.9048 15.5316 17.2992 15.8336 18.8442H16.9939C16.685 17.0043 15.7134 15.3302 14.2518 14.1197C12.7901 12.9091 10.9333 12.2405 9.01128 12.2328Z" fill="url(#paint0_linear_3_50)"/>
<path d="M9.01128 11.1074C10.2353 11.1071 11.4214 10.6952 12.3674 9.94181C13.3134 9.18842 13.9608 8.14021 14.1993 6.97576C14.4378 5.81131 14.2526 4.60267 13.6754 3.55577C13.0981 2.50888 12.1645 1.6885 11.0335 1.23442C9.90256 0.780343 8.64425 0.720652 7.473 1.06552C6.30174 1.41039 5.29001 2.13848 4.61018 3.12574C3.93035 4.113 3.62448 5.29835 3.7447 6.47982C3.86491 7.66128 4.40376 8.76577 5.26944 9.6051C6.2623 10.5669 7.60807 11.1072 9.01128 11.1074ZM9.01128 1.96396C9.82987 1.96285 10.6304 2.19734 11.3115 2.63774C11.9926 3.07815 12.5237 3.70466 12.8374 4.43796C13.1512 5.17127 13.2336 5.97839 13.0742 6.75714C12.9148 7.53589 12.5207 8.25126 11.9419 8.81267C11.3631 9.37407 10.6255 9.75628 9.82262 9.9109C9.01971 10.0655 8.18755 9.9856 7.4315 9.68125C6.67545 9.37691 6.0295 8.86182 5.57544 8.20121C5.12137 7.5406 4.87961 6.76417 4.88076 5.97022C4.88382 4.90861 5.31998 3.89132 6.09394 3.14065C6.8679 2.38997 7.91674 1.96693 9.01128 1.96396Z" fill="url(#paint1_linear_3_50)"/>
<defs>
<linearGradient id="paint0_linear_3_50" x1="8.99388" y1="0.844238" x2="8.99388" y2="18.8442" gradientUnits="userSpaceOnUse">
<stop stop-color="#FF3131"/>
<stop offset="1" stop-color="#E30000"/>
</linearGradient>
<linearGradient id="paint1_linear_3_50" x1="8.99388" y1="0.844238" x2="8.99388" y2="18.8442" gradientUnits="userSpaceOnUse">
<stop stop-color="#FF3131"/>
<stop offset="1" stop-color="#E30000"/>
</linearGradient>
</defs>
</svg>
