<svg width="38" height="64" viewBox="0 0 38 64" fill="none" xmlns="http://www.w3.org/2000/svg">
<path d="M6.19975 29.3318C4.77259 29.3318 3.78795 28.7118 3.22372 28.28C1.80762 27.04 1.24339 24.8036 1.80762 22.7C2.42717 20.53 3.97603 18.8582 5.45851 17.43C9.67363 13.5218 10.4149 12.78 10.4149 1.68643C10.4149 1.31 10.7246 1 11.1008 1C11.477 1 11.7867 1.31 11.7867 1.68643C11.7867 13.09 10.9238 14.2082 6.39889 18.4929C5.03811 19.7329 3.61094 21.2829 3.11309 23.0764C2.68162 24.6264 3.04671 26.2982 4.10879 27.1729C5.10449 28.0364 6.58697 28.1029 8.37923 27.3611C8.81069 27.1729 9.49662 26.8075 10.2379 26.3646C12.528 25.0582 16.0018 23.1429 19.0996 23.1429C22.1309 23.1429 25.4831 25.0029 27.8949 26.3646C28.6361 26.7964 29.2557 27.1064 29.7535 27.3611C31.5458 28.1029 33.0393 28.1029 34.024 27.1729C35.075 26.3093 35.4511 24.6264 35.0197 23.0764C34.5218 21.2164 33.0947 19.7329 31.7339 18.4929C27.209 14.2082 26.335 13.09 26.335 1.68643C26.4014 1.31 26.7111 1 27.0762 1C27.4413 1 27.7621 1.31 27.7621 1.68643C27.7621 12.78 28.5034 13.5329 32.7185 17.43C34.201 18.7918 35.8162 20.53 36.3694 22.7C36.9226 24.7482 36.3694 27.04 34.9422 28.28C34.1346 29.0218 32.276 30.0182 29.1782 28.7118C28.6804 28.4682 28.0055 28.0918 27.1979 27.66C25.0295 26.4864 21.7437 24.6264 19.0774 24.6264C16.4112 24.6264 13.1254 26.42 10.9017 27.66C10.094 28.0918 9.47449 28.4682 8.92133 28.7118C7.93669 29.1436 6.95206 29.3318 6.19975 29.3318Z" fill="#FF9900"/>
<path d="M27.0873 63C26.7111 63 26.4014 62.69 26.4014 62.3136C26.4014 50.91 27.2643 49.7918 31.7892 45.5071C33.15 44.2671 34.5771 42.7171 35.075 40.9236C35.5065 39.3736 35.1414 37.7018 34.0793 36.8271C33.0836 35.9636 31.6011 35.8971 29.8088 36.6389C29.3774 36.8271 28.6915 37.1925 27.9502 37.6354C25.5384 38.9971 22.1862 40.8571 19.0885 40.8571C16.0572 40.8571 12.5833 38.9307 10.2268 37.6354C9.48556 37.2036 8.86601 36.8936 8.36816 36.6389C6.57591 35.8971 5.08236 35.8971 4.09773 36.8271C3.04671 37.6907 2.67056 39.3736 3.10203 40.9236C3.59988 42.7836 5.02704 44.2671 6.38783 45.5071C10.9127 49.7807 11.7757 50.8989 11.7757 62.3136C11.7757 62.69 11.4659 63 11.0897 63C10.7136 63 10.4038 62.69 10.4038 62.3136C10.4038 51.1536 9.66257 50.4671 5.44745 46.57C3.96497 45.2082 2.34972 43.47 1.79656 41.3C1.24339 39.2518 1.79656 36.96 3.22372 35.72C4.03135 34.9782 5.88998 33.9818 8.98771 35.2882C9.48555 35.5318 10.1604 35.9082 10.968 36.34C13.1364 37.5136 16.4222 39.3736 19.1438 39.3736C21.8101 39.3736 25.0959 37.58 27.2643 36.34C28.0719 35.9082 28.6915 35.5318 29.2446 35.2882C32.3423 33.9264 34.201 34.9782 35.0086 35.72C36.4358 36.96 36.9889 39.1964 36.4358 41.3C35.8162 43.47 34.2674 45.1418 32.7849 46.57C28.5698 50.4782 27.8285 51.22 27.8285 62.3136C27.8285 62.69 27.5187 63 27.0873 63Z" fill="#FF9900"/>
<path d="M34.2674 36.7718C34.0793 36.7718 33.8912 36.7054 33.7142 36.5282C33.4708 36.2182 33.4708 35.7864 33.7806 35.5318C35.0197 34.48 35.6392 33.2954 35.5728 32.1218C35.5728 30.0736 33.7806 28.5236 33.7806 28.5236C33.4708 28.28 33.4708 27.8371 33.7142 27.5271C33.9576 27.2171 34.4001 27.2171 34.7099 27.4607C34.8316 27.5271 37 29.4425 37 32.1107C37 33.7271 36.2588 35.2771 34.7099 36.6389C34.6435 36.7164 34.4554 36.7718 34.2674 36.7718Z" fill="#FF9900"/>
<path d="M3.78795 36.7718C3.59988 36.7718 3.47818 36.7054 3.2901 36.5836C1.74124 35.2218 1 33.7382 1 32.0664C1 29.3982 3.23479 27.4829 3.2901 27.4164C3.59988 27.1729 4.03135 27.1729 4.2858 27.4829C4.52919 27.7929 4.52919 28.2246 4.21942 28.4793C4.15304 28.5457 2.42717 30.0957 2.42717 32.0775C2.42717 33.2511 3.04671 34.4357 4.21942 35.4875C4.52919 35.7311 4.52919 36.1739 4.2858 36.4839C4.16411 36.65 3.97603 36.7718 3.78795 36.7718Z" fill="#FF9900"/>
<path d="M6.19975 29.3318C4.77259 29.3318 3.78795 28.7118 3.22372 28.28C1.80762 27.04 1.24339 24.8036 1.80762 22.7C2.42717 20.53 3.97603 18.8582 5.45851 17.43C9.67363 13.5218 10.4149 12.78 10.4149 1.68643C10.4149 1.31 10.7246 1 11.1008 1C11.477 1 11.7867 1.31 11.7867 1.68643C11.7867 13.09 10.9238 14.2082 6.39889 18.4929C5.03811 19.7329 3.61094 21.2829 3.11309 23.0764C2.68162 24.6264 3.04671 26.2982 4.10879 27.1729C5.10449 28.0364 6.58697 28.1029 8.37923 27.3611C8.81069 27.1729 9.49662 26.8075 10.2379 26.3646C12.528 25.0582 16.0018 23.1429 19.0996 23.1429C22.1309 23.1429 25.4831 25.0029 27.8949 26.3646C28.6361 26.7964 29.2557 27.1064 29.7535 27.3611C31.5458 28.1029 33.0393 28.1029 34.024 27.1729C35.075 26.3093 35.4511 24.6264 35.0197 23.0764C34.5218 21.2164 33.0947 19.7329 31.7339 18.4929C27.209 14.2082 26.335 13.09 26.335 1.68643C26.4014 1.31 26.7111 1 27.0762 1C27.4413 1 27.7621 1.31 27.7621 1.68643C27.7621 12.78 28.5034 13.5329 32.7185 17.43C34.201 18.7918 35.8162 20.53 36.3694 22.7C36.9226 24.7482 36.3694 27.04 34.9422 28.28C34.1346 29.0218 32.276 30.0182 29.1782 28.7118C28.6804 28.4682 28.0055 28.0918 27.1979 27.66C25.0295 26.4864 21.7437 24.6264 19.0774 24.6264C16.4112 24.6264 13.1254 26.42 10.9017 27.66C10.094 28.0918 9.47449 28.4682 8.92133 28.7118C7.93669 29.1436 6.95206 29.3318 6.19975 29.3318Z" stroke="#FF9900"/>
<path d="M27.0873 63C26.7111 63 26.4014 62.69 26.4014 62.3136C26.4014 50.91 27.2643 49.7918 31.7892 45.5071C33.15 44.2671 34.5771 42.7171 35.075 40.9236C35.5065 39.3736 35.1414 37.7018 34.0793 36.8271C33.0836 35.9636 31.6011 35.8971 29.8088 36.6389C29.3774 36.8271 28.6915 37.1925 27.9502 37.6354C25.5384 38.9971 22.1862 40.8571 19.0885 40.8571C16.0572 40.8571 12.5833 38.9307 10.2268 37.6354C9.48556 37.2036 8.86601 36.8936 8.36816 36.6389C6.57591 35.8971 5.08236 35.8971 4.09773 36.8271C3.04671 37.6907 2.67056 39.3736 3.10203 40.9236C3.59988 42.7836 5.02704 44.2671 6.38783 45.5071C10.9127 49.7807 11.7757 50.8989 11.7757 62.3136C11.7757 62.69 11.4659 63 11.0897 63C10.7136 63 10.4038 62.69 10.4038 62.3136C10.4038 51.1536 9.66257 50.4671 5.44745 46.57C3.96497 45.2082 2.34972 43.47 1.79656 41.3C1.24339 39.2518 1.79656 36.96 3.22372 35.72C4.03135 34.9782 5.88998 33.9818 8.98771 35.2882C9.48555 35.5318 10.1604 35.9082 10.968 36.34C13.1364 37.5136 16.4222 39.3736 19.1438 39.3736C21.8101 39.3736 25.0959 37.58 27.2643 36.34C28.0719 35.9082 28.6915 35.5318 29.2446 35.2882C32.3423 33.9264 34.201 34.9782 35.0086 35.72C36.4358 36.96 36.9889 39.1964 36.4358 41.3C35.8162 43.47 34.2674 45.1418 32.7849 46.57C28.5698 50.4782 27.8285 51.22 27.8285 62.3136C27.8285 62.69 27.5187 63 27.0873 63Z" stroke="#FF9900"/>
<path d="M34.2674 36.7718C34.0793 36.7718 33.8912 36.7054 33.7142 36.5282C33.4708 36.2182 33.4708 35.7864 33.7806 35.5318C35.0197 34.48 35.6392 33.2954 35.5728 32.1218C35.5728 30.0736 33.7806 28.5236 33.7806 28.5236C33.4708 28.28 33.4708 27.8371 33.7142 27.5271C33.9576 27.2171 34.4001 27.2171 34.7099 27.4607C34.8316 27.5271 37 29.4425 37 32.1107C37 33.7271 36.2588 35.2771 34.7099 36.6389C34.6435 36.7164 34.4554 36.7718 34.2674 36.7718Z" stroke="#FF9900"/>
<path d="M3.78795 36.7718C3.59988 36.7718 3.47818 36.7054 3.2901 36.5836C1.74124 35.2218 1 33.7382 1 32.0664C1 29.3982 3.23479 27.4829 3.2901 27.4164C3.59988 27.1729 4.03135 27.1729 4.2858 27.4829C4.52919 27.7929 4.52919 28.2246 4.21942 28.4793C4.15304 28.5457 2.42717 30.0957 2.42717 32.0775C2.42717 33.2511 3.04671 34.4357 4.21942 35.4875C4.52919 35.7311 4.52919 36.1739 4.2858 36.4839C4.16411 36.65 3.97603 36.7718 3.78795 36.7718Z" stroke="#FF9900"/>
</svg>
