<svg width="48" height="50" viewBox="0 0 48 50" fill="none" xmlns="http://www.w3.org/2000/svg">
<path d="M0.946148 23.437C0.193458 23.1531 -0.188794 22.3059 0.0923803 21.545C0.373175 20.7843 1.21107 20.3975 1.96346 20.6817C7.38517 22.728 13.1089 22.5672 20.737 20.6329C21.8653 20.3469 22.8526 21.449 22.4601 22.556C20.914 26.9139 21.597 31.5765 24.4825 35.9488C24.7319 36.3262 24.7944 36.7991 24.6526 37.2299L23.2728 41.4151V47.0589H45.0903V45.5885C45.0903 44.531 44.3956 43.6043 43.3921 43.3166L36.6407 41.8804C36.3944 41.8281 36.1657 41.7119 35.9773 41.5435L31.0369 37.1319C30.6992 36.8298 30.5188 36.3869 30.5484 35.9318L31.9997 13.9132C31.9776 11.7268 30.3732 9.88313 28.2259 9.58706L1.25911 5.86913C0.463294 5.75962 -0.0941367 5.01814 0.014483 4.21352C0.123147 3.40856 0.85617 2.84531 1.65199 2.95514L28.6197 6.67306C32.2231 7.16971 34.9096 10.2814 34.9096 13.9585L34.9062 14.0562L33.4994 35.4061L37.6158 39.0821L44.0348 40.4476L44.1117 40.466C46.405 41.0869 48 43.1878 48 45.5884V47.0589C48 48.683 46.6974 50 45.091 50H23.2735C21.6667 50 20.3645 48.683 20.3645 47.0589V41.4151C20.3645 41.0991 20.4149 40.7852 20.5139 40.4852L21.6729 36.9686C19.1161 32.815 18.2164 28.3575 19.0447 24.0508C12.0383 25.5624 6.40771 25.4978 0.94759 23.437L0.946148 23.437ZM27.6357 44.8529C26.8323 44.8529 26.1813 44.1948 26.1813 43.3825C26.1813 42.5702 26.8323 41.9117 27.6357 41.9117H30.5447C31.3481 41.9117 31.9994 42.5702 31.9994 43.3825C31.9994 44.1948 31.3481 44.8529 30.5447 44.8529H27.6357ZM37.3911 7.65763C36.8233 8.23171 35.9023 8.23171 35.3345 7.65763C34.7664 7.08321 34.7664 6.15201 35.3345 5.57791L37.516 3.37194C38.0841 2.79752 39.0051 2.79752 39.573 3.37194C40.1411 3.94637 40.1411 4.8772 39.573 5.45166L37.3911 7.65763ZM32.7267 3.67641C32.7267 4.48869 32.0754 5.1472 31.272 5.1472C30.4689 5.1472 29.8176 4.48872 29.8176 3.67641V1.47044C29.8176 0.658496 30.4689 0 31.272 0C32.0754 0 32.7267 0.658478 32.7267 1.47044V3.67641ZM38.5447 12.4999C37.7413 12.4999 37.09 11.8414 37.09 11.0295C37.09 10.2172 37.7413 9.55869 38.5447 9.55869H40.7262C41.5296 9.55869 42.1809 10.2172 42.1809 11.0295C42.1809 11.8414 41.5296 12.4999 40.7262 12.4999H38.5447Z" fill="#FF9900"/>
</svg>
