<svg width="48" height="58" viewBox="0 0 48 58" fill="none" xmlns="http://www.w3.org/2000/svg">
<path d="M26.8239 22.6183C26.8239 13.0445 14.6514 0.815284 14.1369 0.30282C13.9498 0.104822 13.6809 0 13.4119 0C13.143 0 12.8857 0.104822 12.687 0.30282C12.1725 0.815284 0 13.0445 0 22.6183C0 27.3935 2.56078 31.7961 6.71182 34.1837C10.8629 36.5713 15.9727 36.5713 20.1121 34.1837C24.2514 31.7961 26.8239 27.3819 26.8239 22.6183ZM13.4119 33.9391C10.3951 33.9391 7.50694 32.7395 5.37881 30.6197C3.25067 28.5 2.04629 25.6232 2.04629 22.6183C2.04629 15.1526 10.8044 5.27605 13.4119 2.49244C16.0195 5.26441 24.7776 15.1526 24.7776 22.6183C24.7776 25.6232 23.5732 28.5 21.4451 30.6197C19.3169 32.7395 16.4287 33.9275 13.4119 33.9391Z" fill="#FF9900"/>
<path d="M11.5527 30.643C9.71693 30.1422 8.0916 29.0591 6.94568 27.5566C5.78806 26.0541 5.15664 24.2139 5.14495 22.3155C5.15664 21.7564 4.7123 21.2906 4.15104 21.2789C3.58977 21.2673 3.12205 21.6982 3.09866 22.2689C3.12205 24.6099 3.89379 26.8694 5.30865 28.7329C6.72351 30.5964 8.71133 31.9475 10.9564 32.5997C11.4943 32.7511 12.0555 32.4367 12.2076 31.9125C12.3829 31.3768 12.0789 30.8061 11.5527 30.643Z" fill="#FF9900"/>
<path d="M35.313 21.3954C35.1259 21.209 34.857 21.0926 34.5881 21.0926C34.3191 21.0926 34.0619 21.1974 33.8631 21.3954C33.3486 21.9078 21.1761 34.1488 21.1761 43.7109C21.9128 61.4258 47.2633 61.4375 48 43.7109C48 34.1371 35.8392 21.9078 35.313 21.3954ZM34.5881 55.0317C31.5713 55.0317 28.6831 53.832 26.5549 51.7123C24.4268 49.5926 23.2224 46.7158 23.2224 43.7109C23.2224 36.2452 31.9805 26.3686 34.5881 23.585C37.1956 26.357 45.9537 36.2452 45.9537 43.7109C45.9537 46.7158 44.7493 49.5926 42.6212 51.7123C40.4931 53.832 37.6049 55.0317 34.5881 55.0317Z" fill="#FF9900"/>
<path d="M32.7289 51.7356C30.8931 51.2348 29.2794 50.1516 28.1218 48.6492C26.9642 47.1467 26.3328 45.3065 26.3211 43.4081C26.3328 42.849 25.8884 42.3831 25.3272 42.3598C24.7659 42.3482 24.2982 42.7908 24.2748 43.3498C24.2982 45.6908 25.0699 47.9504 26.4848 49.8139C27.8996 51.6774 29.8875 53.0284 32.1442 53.6806C32.6821 53.832 33.2434 53.5176 33.3954 52.9935C33.5474 52.4694 33.2667 51.9103 32.7289 51.7356Z" fill="#FF9900"/>
</svg>
