<svg width="52" height="52" viewBox="0 0 52 52" fill="none" xmlns="http://www.w3.org/2000/svg">
<path d="M48.8201 18.9894C48.8201 20.5665 48.8201 22.1436 48.8201 23.7207C48.8201 26.239 48.8201 28.7509 48.8201 31.2692C48.8201 31.8479 48.8201 32.4329 48.8201 33.0116C49.3479 32.4838 49.882 31.9496 50.4097 31.4218C48.445 31.4218 46.4866 31.4218 44.5219 31.4218C41.3999 31.4218 38.2716 31.4218 35.1496 31.4218C34.4375 31.4218 33.7254 31.4218 33.0132 31.4218C32.1548 31.4218 31.4236 32.1531 31.4236 33.0116C31.4236 34.9766 31.4236 36.9353 31.4236 38.9003C31.4236 42.0227 31.4236 45.1515 31.4236 48.2739C31.4236 48.9862 31.4236 49.6984 31.4236 50.4107C31.9514 49.8828 32.4855 49.3487 33.0132 48.8208C31.4363 48.8208 29.8595 48.8208 28.2826 48.8208C25.7647 48.8208 23.2468 48.8208 20.7352 48.8208C20.1503 48.8208 19.5716 48.8208 18.9867 48.8208C19.5144 49.3487 20.0485 49.8828 20.5763 50.4107C20.5763 48.4456 20.5763 46.487 20.5763 44.5219C20.5763 41.3995 20.5763 38.2708 20.5763 35.1483C20.5763 34.4361 20.5763 33.7239 20.5763 33.0116C20.5763 32.1531 19.8451 31.4218 18.9867 31.4218C17.0219 31.4218 15.0636 31.4218 13.0988 31.4218C9.97688 31.4218 6.84857 31.4218 3.72661 31.4218C3.01447 31.4218 2.30234 31.4218 1.5902 31.4218C2.11795 31.9496 2.65205 32.4838 3.17979 33.0116C3.17979 31.4345 3.17979 29.8574 3.17979 28.2803C3.17979 25.762 3.17979 23.2501 3.17979 20.7318C3.17979 20.1531 3.17979 19.5681 3.17979 18.9894C2.65205 19.5172 2.11795 20.0514 1.5902 20.5792C3.55493 20.5792 5.51331 20.5792 7.47804 20.5792C10.6 20.5792 13.7283 20.5792 16.8503 20.5792C17.5624 20.5792 18.2745 20.5792 18.9867 20.5792C19.8451 20.5792 20.5763 19.8479 20.5763 18.9894C20.5763 17.0243 20.5763 15.0657 20.5763 13.1006C20.5763 9.97823 20.5763 6.84945 20.5763 3.72704C20.5763 3.0148 20.5763 2.30256 20.5763 1.59031C20.0485 2.11814 19.5144 2.65232 18.9867 3.18014C20.5636 3.18014 22.1404 3.18014 23.7173 3.18014C26.2352 3.18014 28.7531 3.18014 31.2647 3.18014C31.8496 3.18014 32.4283 3.18014 33.0132 3.18014C32.4855 2.65232 31.9514 2.11814 31.4236 1.59031C31.4236 3.55534 31.4236 5.514 31.4236 7.47902C31.4236 10.6014 31.4236 13.7302 31.4236 16.8526C31.4236 17.5649 31.4236 18.2771 31.4236 18.9894C31.4236 19.8479 32.1548 20.5792 33.0132 20.5792C34.978 20.5792 36.9363 20.5792 38.9011 20.5792C42.023 20.5792 45.1513 20.5792 48.2733 20.5792C48.9854 20.5792 49.6976 20.5792 50.4097 20.5792C51.2426 20.5792 52.0374 19.8479 51.9993 18.9894C51.9611 18.1309 51.2999 17.3995 50.4097 17.3995C48.445 17.3995 46.4866 17.3995 44.5219 17.3995C41.3999 17.3995 38.2716 17.3995 35.1496 17.3995C34.4375 17.3995 33.7254 17.3995 33.0132 17.3995C33.541 17.9274 34.0751 18.4615 34.6028 18.9894C34.6028 17.0243 34.6028 15.0657 34.6028 13.1006C34.6028 9.97823 34.6028 6.84945 34.6028 3.72704C34.6028 3.0148 34.6028 2.30256 34.6028 1.59031C34.6028 0.731808 33.8716 0.000488281 33.0132 0.000488281C31.4363 0.000488281 29.8595 0.000488281 28.2826 0.000488281C25.7647 0.000488281 23.2468 0.000488281 20.7352 0.000488281C20.1503 0.000488281 19.5716 0.000488281 18.9867 0.000488281C18.1283 0.000488281 17.3971 0.731808 17.3971 1.59031C17.3971 3.55534 17.3971 5.514 17.3971 7.47902C17.3971 10.6014 17.3971 13.7302 17.3971 16.8526C17.3971 17.5649 17.3971 18.2771 17.3971 18.9894C17.9248 18.4615 18.4589 17.9274 18.9867 17.3995C17.0219 17.3995 15.0636 17.3995 13.0988 17.3995C9.97688 17.3995 6.84857 17.3995 3.72661 17.3995C3.01447 17.3995 2.30234 17.3995 1.5902 17.3995C0.731822 17.3995 0.000610352 18.1309 0.000610352 18.9894C0.000610352 20.5665 0.000610352 22.1436 0.000610352 23.7207C0.000610352 26.239 0.000610352 28.7509 0.000610352 31.2692C0.000610352 31.8479 0.000610352 32.4329 0.000610352 33.0116C0.000610352 33.8701 0.731822 34.6014 1.5902 34.6014C3.55493 34.6014 5.51331 34.6014 7.47804 34.6014C10.6 34.6014 13.7283 34.6014 16.8503 34.6014C17.5624 34.6014 18.2745 34.6014 18.9867 34.6014C18.4589 34.0736 17.9248 33.5394 17.3971 33.0116C17.3971 34.9766 17.3971 36.9353 17.3971 38.9003C17.3971 42.0227 17.3971 45.1515 17.3971 48.2739C17.3971 48.9862 17.3971 49.6984 17.3971 50.4107C17.3971 51.2692 18.1283 52.0005 18.9867 52.0005C20.5636 52.0005 22.1404 52.0005 23.7173 52.0005C26.2352 52.0005 28.7531 52.0005 31.2647 52.0005C31.8496 52.0005 32.4283 52.0005 33.0132 52.0005C33.8716 52.0005 34.6028 51.2692 34.6028 50.4107C34.6028 48.4456 34.6028 46.487 34.6028 44.5219C34.6028 41.3995 34.6028 38.2708 34.6028 35.1483C34.6028 34.4361 34.6028 33.7239 34.6028 33.0116C34.0751 33.5394 33.541 34.0736 33.0132 34.6014C34.978 34.6014 36.9363 34.6014 38.9011 34.6014C42.023 34.6014 45.1513 34.6014 48.2733 34.6014C48.9854 34.6014 49.6976 34.6014 50.4097 34.6014C51.2681 34.6014 51.9993 33.8701 51.9993 33.0116C51.9993 31.4345 51.9993 29.8574 51.9993 28.2803C51.9993 25.762 51.9993 23.2501 51.9993 20.7318C51.9993 20.1531 51.9993 19.5681 51.9993 18.9894C51.9993 18.1563 51.2681 17.3614 50.4097 17.3995C49.5513 17.4377 48.8201 18.0991 48.8201 18.9894Z" fill="#FF9900"/>
</svg>
