<svg width="62" height="33" viewBox="0 0 62 33" fill="none" xmlns="http://www.w3.org/2000/svg">
<path d="M61.8495 0H0V2.81166H61.8495V0Z" fill="#FF9900"/>
<path d="M51.2403 19.4596C47.7791 19.4596 44.8446 16.574 44.8446 13.1704C44.8446 11.2466 43.1893 9.54483 41.1577 9.54483H40.8568C40.6311 9.54483 40.4806 9.61882 40.4053 9.61882C40.3301 9.61882 40.2548 9.69282 40.1796 9.69282C39.9539 9.76681 39.8034 9.8408 39.7281 9.8408C38.449 10.4327 37.5461 11.7646 37.5461 13.0964C37.5461 16.5 34.6116 19.3856 31.1505 19.3856C27.6893 19.3856 24.7548 16.5 24.7548 13.0964C24.7548 11.1726 23.0242 9.47084 21.0679 9.47084C19.1116 9.47084 17.381 11.1726 17.381 13.0964C17.381 16.5 14.4466 19.3856 10.9854 19.3856C7.52424 19.3856 4.58977 16.5 4.58977 13.0964C4.58977 11.1726 2.85919 9.47084 0.902876 9.47084C0.677148 9.47084 0.376177 9.47084 0.150449 9.54483V6.80717C0.376177 6.80717 0.677148 6.73318 0.902876 6.73318C4.36404 6.73318 7.29851 9.61882 7.29851 13.0224C7.29851 14.9462 9.02909 16.648 10.9854 16.648C12.9417 16.648 14.6723 14.9462 14.6723 13.0224C14.6723 9.61882 17.6068 6.73318 21.0679 6.73318C24.5291 6.73318 27.4636 9.61882 27.4636 13.0224C27.4636 14.9462 29.1942 16.648 31.1505 16.648C33.1068 16.648 34.8374 14.9462 34.8374 13.0224C34.8374 10.0628 37.0194 7.3991 40.0291 6.80717L40.2548 6.73318C40.5558 6.65919 40.932 6.65919 41.233 6.65919C44.7694 6.65919 47.7039 9.54483 47.7039 12.9484C47.7791 15.0202 49.4345 16.574 51.3155 16.574C53.2718 16.574 55.0024 14.8722 55.0024 12.9484C55.0024 9.54483 57.9369 6.65919 61.3981 6.65919C61.6238 6.65919 61.7743 6.65919 62 6.73318V9.47084C61.7743 9.47084 61.6238 9.39685 61.3981 9.39685C59.4417 9.39685 57.7112 11.0986 57.7112 13.0224C57.6359 16.574 54.7015 19.4596 51.2403 19.4596Z" fill="#FF9900"/>
<path d="M31.0001 25.8229C30.0219 25.8229 29.1942 25.009 29.1942 24.0471C29.1942 23.0852 30.0219 22.2713 31.0001 22.2713C31.9782 22.2713 32.8059 23.0852 32.8059 24.0471C32.8059 25.083 31.9782 25.8229 31.0001 25.8229Z" fill="#FF9900"/>
<path d="M6.09463 25.8968C7.09196 25.8968 7.90045 25.1018 7.90045 24.121C7.90045 23.1403 7.09196 22.3452 6.09463 22.3452C5.0973 22.3452 4.2888 23.1403 4.2888 24.121C4.2888 25.1018 5.0973 25.8968 6.09463 25.8968Z" fill="#FF9900"/>
<path d="M43.4151 33C44.4124 33 45.2209 32.205 45.2209 31.2242C45.2209 30.2435 44.4124 29.4484 43.4151 29.4484C42.4178 29.4484 41.6093 30.2435 41.6093 31.2242C41.6093 32.205 42.4178 33 43.4151 33Z" fill="#FF9900"/>
<path d="M18.585 33C19.5823 33 20.3908 32.205 20.3908 31.2242C20.3908 30.2435 19.5823 29.4484 18.585 29.4484C17.5877 29.4484 16.7792 30.2435 16.7792 31.2242C16.7792 32.205 17.5877 33 18.585 33Z" fill="#FF9900"/>
<path d="M55.8302 25.8968C56.8275 25.8968 57.636 25.1018 57.636 24.121C57.636 23.1403 56.8275 22.3452 55.8302 22.3452C54.8328 22.3452 54.0243 23.1403 54.0243 24.121C54.0243 25.1018 54.8328 25.8968 55.8302 25.8968Z" fill="#FF9900"/>
</svg>
